<?xml version="1.0" encoding="utf-8"?>
<!-- Generator: Adobe Illustrator 18.0.0, SVG Export Plug-In . SVG Version: 6.00 Build 0)  -->
<!DOCTYPE svg PUBLIC "-//W3C//DTD SVG 1.1//EN" "http://www.w3.org/Graphics/SVG/1.1/DTD/svg11.dtd">
<svg version="1.1" id="Layer_1" xmlns="http://www.w3.org/2000/svg" xmlns:xlink="http://www.w3.org/1999/xlink" x="0px" y="0px"
	 viewBox="0 0 792 612" enable-background="new 0 0 792 612" xml:space="preserve">
<g>
	<radialGradient id="SVGID_1_" cx="396.7819" cy="315.8142" r="94.6984" gradientUnits="userSpaceOnUse">
		<stop  offset="0" style="stop-color:#FFFFFF"/>
		<stop  offset="1" style="stop-color:#D1D3D4"/>
	</radialGradient>
	<polygon fill="url(#SVGID_1_)" points="323.9,383.6 372.2,383.6 372.2,395.1 315.4,395.1 288.9,278 354.3,324.1 397,238.7 
		399.1,236.5 439.7,322.4 504.7,284.8 478.2,395.1 425.1,395.1 425.1,383.1 470.1,383.1 488.5,308.3 435.9,337 398.7,263 
		359.8,339.1 307.2,307.1 	"/>
	<radialGradient id="SVGID_2_" cx="398.6653" cy="240.6439" r="22.0724" gradientUnits="userSpaceOnUse">
		<stop  offset="0" style="stop-color:#FFFFFF"/>
		<stop  offset="1" style="stop-color:#D1D3D4"/>
	</radialGradient>
	<circle fill="url(#SVGID_2_)" cx="398.7" cy="240.6" r="22.1"/>
	<g>
		<radialGradient id="SVGID_3_" cx="295.6922" cy="288.0898" r="22.0724" gradientUnits="userSpaceOnUse">
			<stop  offset="0" style="stop-color:#FFFFFF"/>
			<stop  offset="1" style="stop-color:#D1D3D4"/>
		</radialGradient>
		<circle fill="url(#SVGID_3_)" cx="295.7" cy="288.1" r="22.1"/>
		<radialGradient id="SVGID_4_" cx="497.8716" cy="288.0898" r="22.0724" gradientUnits="userSpaceOnUse">
			<stop  offset="0" style="stop-color:#FFFFFF"/>
			<stop  offset="1" style="stop-color:#D1D3D4"/>
		</radialGradient>
		<circle fill="url(#SVGID_4_)" cx="497.9" cy="288.1" r="22.1"/>
	</g>
	<g>
		<radialGradient id="SVGID_5_" cx="398.6653" cy="242.8084" r="12.6283" gradientUnits="userSpaceOnUse">
			<stop  offset="0" style="stop-color:#ED1C24"/>
			<stop  offset="1" style="stop-color:#BE1E2D"/>
		</radialGradient>
		<path fill-rule="evenodd" clip-rule="evenodd" fill="url(#SVGID_5_)" d="M398.7,236c-3.4-8.4-13.1-6.4-13.1,3.3
			c0,5.4,4.6,8.7,7.7,10.9c3,2.1,5.1,3.5,5.5,4.8c0.3-1.2,2.7-2.7,5.4-4.8c3-2.3,7.7-5.5,7.7-10.9
			C411.7,229.5,401.9,227.9,398.7,236z"/>
	</g>
	<g>
		<linearGradient id="SVGID_6_" gradientUnits="userSpaceOnUse" x1="295.6179" y1="287.2616" x2="295.6807" y2="287.2089">
			<stop  offset="0" style="stop-color:#FAF186"/>
			<stop  offset="5.217390e-002" style="stop-color:#AE8E43"/>
			<stop  offset="0.1957" style="stop-color:#FBF4AB"/>
			<stop  offset="0.2957" style="stop-color:#B79A4E"/>
			<stop  offset="0.333" style="stop-color:#BA9E52"/>
			<stop  offset="0.5417" style="stop-color:#C7B065"/>
			<stop  offset="0.687" style="stop-color:#CCB76C"/>
			<stop  offset="0.7652" style="stop-color:#FBF4AB"/>
			<stop  offset="0.9174" style="stop-color:#B79A4E"/>
			<stop  offset="1" style="stop-color:#FBF4AB"/>
		</linearGradient>
		<path fill="url(#SVGID_6_)" d="M295.6,287.3C295.6,287.3,295.6,287.2,295.6,287.3c0-0.1,0-0.1,0-0.1
			C295.7,287.2,295.7,287.3,295.6,287.3z"/>
		<radialGradient id="SVGID_7_" cx="295.5125" cy="287.3951" r="13.8138" gradientUnits="userSpaceOnUse">
			<stop  offset="0" style="stop-color:#ED1C24"/>
			<stop  offset="1" style="stop-color:#BE1E2D"/>
		</radialGradient>
		<path fill="url(#SVGID_7_)" d="M302.3,295.5c3.9,0,7-3.1,7-6.8c0-3.8-3.1-6.8-7-6.8c-0.1,0-0.2,0-0.3,0c0.1-0.5,0.2-0.9,0.2-1.4
			c0-3.8-3.1-6.8-7-6.8c-3.9,0-7,3.1-7,6.8c0,0.6,0.1,1.2,0.2,1.8c-3.7,0.1-6.7,3.1-6.7,6.8c0,3.8,3.1,6.8,7,6.8
			c2.9,0,5.2-0.7,6.3-3.1c-1.4,3.3-1.7,3.3-4.7,8.5h11.6c0,0-4.9-7.1-5.3-8.6C297.8,294.9,299.6,295.5,302.3,295.5z M295.5,287.3
			C295.5,287.3,295.5,287.2,295.5,287.3C295.5,287.2,295.5,287.2,295.5,287.3C295.5,287.2,295.5,287.3,295.5,287.3z"/>
	</g>
	<g>
		<radialGradient id="SVGID_8_" cx="497.8716" cy="287.955" r="12.7762" gradientUnits="userSpaceOnUse">
			<stop  offset="0" style="stop-color:#ED1C24"/>
			<stop  offset="1" style="stop-color:#BE1E2D"/>
		</radialGradient>
		<polygon fill="url(#SVGID_8_)" points="497.5,273.8 486.6,289 498.2,302.1 509.1,287.9 		"/>
	</g>
</g>
<radialGradient id="SVGID_9_" cx="398.0003" cy="349.0877" r="42.3768" gradientUnits="userSpaceOnUse">
	<stop  offset="0" style="stop-color:#ED1C24"/>
	<stop  offset="1" style="stop-color:#BE1E2D"/>
</radialGradient>
<path fill="url(#SVGID_9_)" d="M436.3,356.1c-0.3-3.1-1.3-6.2-2.8-9.5c-1.8-3.8-4.4-7.4-7.8-11.1c-5.4-5.8-10.7-12-15.7-18.3
	c-2.2-2.8-4.5-5.6-6.6-8.4c-1-1.3-2-2.6-3-3.8c-0.1-0.2-0.3-0.3-0.4-0.5l-0.2-0.2l-1.1-1.3l-0.5,0.6c-0.1,0.1-0.5,0.6-0.7,0.9
	l-0.3,0.4c-0.3,0.4-0.7,0.9-1,1.3c-7.5,10.4-15.8,20.3-24.7,29.6c-2.4,2.6-4.6,5.3-6.4,8c-2.3,3.6-3.8,7-4.7,10.5
	c-0.9,3.7-0.9,7-0.1,10.1c1.3,5.2,4.4,9.1,9.3,11.7c3.4,1.8,7.1,2.7,11,2.7c1.4,0,2.8-0.1,4.2-0.3c3.1-0.5,6.2-1.5,9.2-3
	c-0.2,0.9-0.4,1.8-0.7,2.7c-0.9,2.7-2.3,5.1-3.7,7.4c-0.7,1.1-1.3,2.2-2,3.3c-0.7,1.1-1.3,2.2-2,3.3c-0.1,0.2-0.2,0.4-0.3,0.6
	c0,0.1-0.1,0.2-0.1,0.2l-1,2h2.2l24.7,0l2.9,0l-1.3-2.2l-0.1-0.1c-0.1-0.2-0.2-0.3-0.3-0.5c-0.3-0.5-0.7-1.1-1-1.6
	c-0.5-0.8-1.1-1.7-1.6-2.5c-0.3-0.5-0.7-1.1-1-1.6c-1-1.6-2-3.2-2.9-4.8c-1.2-2.1-2.1-4.2-2.5-6.2c3.4,1.6,6.9,2.5,10.4,2.7
	c0.6,0,1.1,0.1,1.7,0.1c3,0,5.9-0.5,8.5-1.6C432.5,373.3,437.2,365.4,436.3,356.1z"/>
</svg>
